<svg width="791" height="157" viewBox="0 0 791 157" fill="none" xmlns="http://www.w3.org/2000/svg">
<g filter="url(#filter0_d_0_1230)">
<rect x="40" y="38" width="711" height="77" rx="8" fill="white" shape-rendering="crispEdges"/>
<circle cx="78" cy="76.5" r="18" fill="#FFE1DF"/>
<g clip-path="url(#clip0_0_1230)">
<path d="M78.0026 71.8333C79.7707 71.8333 81.4664 72.5357 82.7167 73.7859C83.9669 75.0361 84.6693 76.7318 84.6693 78.4999C84.6693 80.268 83.9669 81.9637 82.7167 83.214C81.4664 84.4642 79.7707 85.1666 78.0026 85.1666C76.2345 85.1666 74.5388 84.4642 73.2886 83.214C72.0383 81.9637 71.3359 80.268 71.3359 78.4999C71.3359 76.7318 72.0383 75.0361 73.2886 73.7859C74.5388 72.5357 76.2345 71.8333 78.0026 71.8333ZM78.0026 74.7499L76.9001 76.9833L74.4359 77.3416L76.2193 79.0791L75.7984 81.5341L78.0026 80.3749L80.2068 81.5333L79.7859 79.0791L81.5693 77.3408L79.1051 76.9824L78.0026 74.7499ZM78.8359 67.6658L83.0026 67.6666V70.1666L81.8668 71.1149C80.9242 70.6204 79.8952 70.3123 78.8359 70.2074V67.6666V67.6658ZM77.1693 67.6658V70.2074C76.1104 70.3121 75.0816 70.62 74.1393 71.1141L73.0026 70.1666V67.6666L77.1693 67.6658Z" fill="#FF7169"/>
</g>
<path d="M114.874 70.98L114.354 74H112.594L113.114 70.98H107.154L107.394 69.58L113.254 59.86L114.794 60.52L109.494 69.38H113.394L114.114 65.4H115.874L115.154 69.38H116.874L116.594 70.98H114.874ZM123.286 72.4L125.066 62.34L122.086 64.42L121.266 62.98L125.946 60H127.266L125.086 72.4H127.466L127.186 74H120.146L120.426 72.4H123.286ZM139.495 60H141.395L139.235 72.3H145.655L145.355 74H137.035L139.495 60ZM146.837 69.9C146.837 68.6067 147.117 67.4733 147.677 66.5C148.25 65.5133 149.037 64.7467 150.037 64.2C151.037 63.64 152.177 63.36 153.457 63.36C154.244 63.36 154.93 63.44 155.517 63.6C156.117 63.76 156.61 63.92 156.997 64.08L155.737 71.18C155.724 71.2467 155.71 71.3267 155.697 71.42C155.697 71.5 155.697 71.5867 155.697 71.68C155.697 72.0533 155.804 72.32 156.017 72.48C156.23 72.6267 156.51 72.7 156.857 72.7L156.237 74.1C155.517 74.1 154.964 73.9267 154.577 73.58C154.204 73.22 154.017 72.6667 154.017 71.92C153.644 72.56 153.17 73.1067 152.597 73.56C152.037 74.0133 151.377 74.24 150.617 74.24C149.964 74.24 149.35 74.0667 148.777 73.72C148.204 73.36 147.737 72.86 147.377 72.22C147.017 71.5667 146.837 70.7933 146.837 69.9ZM155.017 65.14C154.764 65.06 154.497 65 154.217 64.96C153.95 64.9067 153.624 64.88 153.237 64.88C152.317 64.88 151.517 65.0867 150.837 65.5C150.157 65.9133 149.624 66.4867 149.237 67.22C148.864 67.94 148.677 68.76 148.677 69.68C148.677 70.32 148.79 70.86 149.017 71.3C149.257 71.74 149.564 72.0733 149.937 72.3C150.31 72.5267 150.697 72.64 151.097 72.64C151.644 72.64 152.144 72.4533 152.597 72.08C153.05 71.7067 153.437 71.1867 153.757 70.52C154.09 69.8533 154.33 69.0933 154.477 68.24L155.017 65.14ZM161.273 59.2H163.073L161.993 65.34C162.353 64.7267 162.826 64.2467 163.413 63.9C164 63.54 164.66 63.36 165.393 63.36C165.966 63.36 166.473 63.48 166.913 63.72C167.366 63.96 167.72 64.2867 167.973 64.7C168.226 65.1 168.353 65.5467 168.353 66.04C168.353 67.0933 167.993 67.8733 167.273 68.38C166.566 68.8733 165.666 69.12 164.573 69.12C164.506 69.12 164.44 69.12 164.373 69.12C164.306 69.12 164.226 69.1133 164.133 69.1L165.833 71.7C166.06 72.0467 166.313 72.3 166.593 72.46C166.886 72.62 167.28 72.7 167.773 72.7L167.153 74.1C166.54 74.1 166.02 74.0133 165.593 73.84C165.166 73.6533 164.786 73.2733 164.453 72.7L161.993 68.46L162.173 67.88C162.373 67.9733 162.626 68.0533 162.933 68.12C163.24 68.1733 163.586 68.2 163.973 68.2C164.84 68.2 165.493 68.02 165.933 67.66C166.386 67.2867 166.613 66.8133 166.613 66.24C166.613 65.8267 166.46 65.48 166.153 65.2C165.86 64.9067 165.46 64.76 164.953 64.76C164.58 64.76 164.146 64.88 163.653 65.12C163.173 65.3467 162.72 65.7533 162.293 66.34C161.866 66.9267 161.56 67.7533 161.373 68.82L160.473 74H158.673L161.273 59.2ZM177.712 66.64C177.712 66.1333 177.559 65.7267 177.252 65.42C176.959 65.1 176.572 64.94 176.092 64.94C175.626 64.94 175.112 65.1067 174.552 65.44C174.006 65.7733 173.506 66.2933 173.052 67C172.599 67.7067 172.272 68.62 172.072 69.74L171.332 74H169.532L172.132 59.2H173.932L172.772 65.78C173.186 65.0467 173.726 64.46 174.392 64.02C175.072 63.58 175.786 63.36 176.532 63.36C177.452 63.36 178.179 63.64 178.712 64.2C179.259 64.7467 179.532 65.42 179.532 66.22C179.532 66.5533 179.492 66.9733 179.412 67.48L178.272 74H176.472L177.572 67.78C177.639 67.46 177.679 67.2267 177.692 67.08C177.706 66.92 177.712 66.7733 177.712 66.64ZM188.59 65.86C188.203 65.5933 187.77 65.36 187.29 65.16C186.823 64.96 186.29 64.86 185.69 64.86C185.063 64.86 184.576 64.9667 184.23 65.18C183.883 65.3933 183.71 65.6733 183.71 66.02C183.71 66.22 183.763 66.4133 183.87 66.6C183.99 66.7733 184.196 66.96 184.49 67.16C184.796 67.36 185.223 67.6 185.77 67.88C186.676 68.3333 187.35 68.8067 187.79 69.3C188.23 69.78 188.45 70.3733 188.45 71.08C188.45 71.7867 188.263 72.3733 187.89 72.84C187.516 73.3067 187.016 73.66 186.39 73.9C185.763 74.1267 185.056 74.24 184.27 74.24C183.456 74.24 182.736 74.14 182.11 73.94C181.496 73.7267 180.963 73.4533 180.51 73.12L181.53 71.64C181.89 71.9333 182.316 72.18 182.81 72.38C183.303 72.58 183.843 72.68 184.43 72.68C185.096 72.68 185.623 72.5533 186.01 72.3C186.396 72.0467 186.59 71.7333 186.59 71.36C186.59 71.0133 186.443 70.6933 186.15 70.4C185.87 70.1067 185.316 69.7533 184.49 69.34C183.823 69.0067 183.303 68.6867 182.93 68.38C182.556 68.06 182.296 67.72 182.15 67.36C182.003 67 181.93 66.5867 181.93 66.12C181.93 65.5867 182.09 65.1133 182.41 64.7C182.73 64.2867 183.176 63.96 183.75 63.72C184.323 63.48 184.983 63.36 185.73 63.36C186.476 63.36 187.143 63.46 187.73 63.66C188.33 63.8467 188.856 64.0733 189.31 64.34L188.59 65.86Z" fill="#2B2F34"/>
<path d="M107.486 87.52C107.486 87.112 107.43 86.812 107.318 86.62C107.206 86.42 106.982 86.32 106.646 86.32H106.406V86.08H107.486C107.782 86.08 108.002 86.12 108.146 86.2C108.298 86.272 108.406 86.408 108.47 86.608C108.534 86.808 108.566 87.112 108.566 87.52V89.68H112.166V86.08H113.246V92.56C113.246 92.968 113.302 93.272 113.414 93.472C113.526 93.664 113.75 93.76 114.086 93.76H114.326V94H113.246C112.95 94 112.726 93.964 112.574 93.892C112.43 93.812 112.326 93.672 112.262 93.472C112.198 93.272 112.166 92.968 112.166 92.56V90.16H108.566V94H107.486V87.52ZM116.319 87.64C116.135 87.64 115.975 87.564 115.839 87.412C115.711 87.26 115.647 87.08 115.647 86.872C115.647 86.704 115.695 86.572 115.791 86.476C115.895 86.38 116.031 86.332 116.199 86.332C116.383 86.332 116.539 86.408 116.667 86.56C116.803 86.712 116.871 86.892 116.871 87.1C116.871 87.268 116.819 87.4 116.715 87.496C116.619 87.592 116.487 87.64 116.319 87.64ZM115.863 89.8C115.863 89.392 115.807 89.092 115.695 88.9C115.583 88.7 115.359 88.6 115.023 88.6H114.783V88.36H115.863C116.159 88.36 116.379 88.4 116.523 88.48C116.675 88.552 116.783 88.688 116.847 88.888C116.911 89.088 116.943 89.392 116.943 89.8V94H115.863V89.8ZM120.844 96.4C120.036 96.4 119.392 96.252 118.912 95.956C118.44 95.66 118.204 95.188 118.204 94.54C118.204 94.172 118.328 93.852 118.576 93.58C118.824 93.308 119.14 93.108 119.524 92.98C119.204 92.804 119.044 92.564 119.044 92.26C119.044 92.1 119.08 91.976 119.152 91.888C119.224 91.8 119.328 91.704 119.464 91.6C119.208 91.472 118.992 91.272 118.816 91C118.648 90.728 118.564 90.408 118.564 90.04C118.564 88.84 119.324 88.24 120.844 88.24H123.064V88.54L122.284 88.66V88.72C122.532 88.848 122.732 89.028 122.884 89.26C123.044 89.484 123.124 89.744 123.124 90.04C123.124 91.24 122.364 91.84 120.844 91.84C120.004 91.84 119.584 91.98 119.584 92.26C119.584 92.54 120.004 92.68 120.844 92.68C121.62 92.68 122.252 92.836 122.74 93.148C123.236 93.452 123.484 93.916 123.484 94.54C123.484 95.188 123.244 95.66 122.764 95.956C122.292 96.252 121.652 96.4 120.844 96.4ZM120.844 91.42C121.204 91.42 121.492 91.312 121.708 91.096C121.932 90.872 122.044 90.52 122.044 90.04C122.044 89.584 121.932 89.24 121.708 89.008C121.492 88.776 121.204 88.66 120.844 88.66C120.484 88.66 120.192 88.772 119.968 88.996C119.752 89.212 119.644 89.56 119.644 90.04C119.644 90.52 119.752 90.872 119.968 91.096C120.192 91.312 120.484 91.42 120.844 91.42ZM120.844 95.92C121.324 95.92 121.704 95.804 121.984 95.572C122.264 95.348 122.404 95.004 122.404 94.54C122.404 93.74 121.924 93.28 120.964 93.16L120.304 93.1C119.976 93.228 119.724 93.408 119.548 93.64C119.372 93.872 119.284 94.172 119.284 94.54C119.284 95.004 119.424 95.348 119.704 95.572C119.984 95.804 120.364 95.92 120.844 95.92ZM124.782 87.52C124.782 87.112 124.726 86.812 124.614 86.62C124.502 86.42 124.278 86.32 123.942 86.32H123.702V86.08H124.782C125.078 86.08 125.298 86.12 125.442 86.2C125.594 86.272 125.702 86.408 125.766 86.608C125.83 86.808 125.862 87.112 125.862 87.52V88.84C126.03 88.672 126.246 88.532 126.51 88.42C126.782 88.3 127.086 88.24 127.422 88.24C128.022 88.24 128.51 88.4 128.886 88.72C129.27 89.04 129.462 89.6 129.462 90.4V94H128.382V90.4C128.382 89.84 128.254 89.432 127.998 89.176C127.75 88.912 127.438 88.78 127.062 88.78C126.638 88.78 126.238 88.992 125.862 89.416V94H124.782V87.52ZM133.45 94.12C132.906 94.12 132.446 93.992 132.07 93.736C131.694 93.472 131.41 93.12 131.218 92.68C131.026 92.232 130.93 91.732 130.93 91.18C130.93 90.636 131.026 90.14 131.218 89.692C131.41 89.244 131.686 88.892 132.046 88.636C132.414 88.372 132.842 88.24 133.33 88.24C134.138 88.24 134.738 88.468 135.13 88.924C135.53 89.372 135.73 90.024 135.73 90.88L135.706 91.36H132.07C132.07 92.032 132.214 92.58 132.502 93.004C132.79 93.428 133.186 93.64 133.69 93.64C134.066 93.64 134.382 93.56 134.638 93.4C134.902 93.24 135.146 93 135.37 92.68L135.61 92.86C135.346 93.3 135.038 93.62 134.686 93.82C134.334 94.02 133.922 94.12 133.45 94.12ZM134.59 90.88C134.59 90.176 134.486 89.64 134.278 89.272C134.07 88.904 133.754 88.72 133.33 88.72C133.09 88.72 132.874 88.816 132.682 89.008C132.49 89.192 132.338 89.448 132.226 89.776C132.122 90.104 132.07 90.472 132.07 90.88H134.59ZM139.117 94.12C138.197 94.12 137.577 93.96 137.257 93.64C137.121 93.504 137.037 93.352 137.005 93.184C136.973 93.008 136.957 92.74 136.957 92.38H137.197C137.269 92.78 137.441 93.092 137.713 93.316C137.993 93.532 138.381 93.64 138.877 93.64C139.317 93.64 139.645 93.564 139.861 93.412C140.085 93.26 140.197 93.056 140.197 92.8C140.197 92.568 140.109 92.368 139.933 92.2C139.765 92.032 139.493 91.872 139.117 91.72L138.397 91.42C137.917 91.228 137.557 91.004 137.317 90.748C137.077 90.492 136.957 90.176 136.957 89.8C136.957 89.312 137.141 88.932 137.509 88.66C137.877 88.38 138.353 88.24 138.937 88.24C139.817 88.24 140.417 88.4 140.737 88.72C140.873 88.856 140.957 89.008 140.989 89.176C141.021 89.344 141.037 89.612 141.037 89.98H140.797C140.733 89.58 140.565 89.272 140.293 89.056C140.021 88.832 139.649 88.72 139.177 88.72C138.801 88.72 138.505 88.8 138.289 88.96C138.081 89.112 137.977 89.312 137.977 89.56C137.977 89.976 138.297 90.316 138.937 90.58L139.657 90.88C140.201 91.104 140.597 91.344 140.845 91.6C141.093 91.848 141.217 92.168 141.217 92.56C141.217 93.048 141.021 93.432 140.629 93.712C140.237 93.984 139.733 94.12 139.117 94.12ZM144.376 94.12C143.928 94.12 143.576 93.992 143.32 93.736C143.064 93.48 142.936 93.088 142.936 92.56V88.84H142.096V88.36H142.936V87.28L143.536 86.56H144.016V88.36H145.456V88.84H144.016V92.56C144.016 93.28 144.296 93.64 144.856 93.64C145.048 93.64 145.208 93.62 145.336 93.58C145.472 93.54 145.612 93.48 145.756 93.4L145.876 93.64C145.692 93.776 145.488 93.892 145.264 93.988C145.04 94.076 144.744 94.12 144.376 94.12ZM152.523 94.204C152.083 94.204 151.651 94.144 151.227 94.024C150.803 93.904 150.455 93.732 150.183 93.508C149.919 93.284 149.787 93.028 149.787 92.74V91.456H150.003C150.139 92.256 150.403 92.836 150.795 93.196C151.187 93.548 151.727 93.724 152.415 93.724C152.847 93.724 153.215 93.616 153.519 93.4C153.831 93.184 153.987 92.884 153.987 92.5C153.987 92.164 153.883 91.872 153.675 91.624C153.467 91.376 153.131 91.116 152.667 90.844L151.191 89.968C150.679 89.664 150.315 89.356 150.099 89.044C149.891 88.732 149.787 88.352 149.787 87.904C149.787 87.288 149.999 86.796 150.423 86.428C150.855 86.052 151.419 85.864 152.115 85.864C152.523 85.864 152.927 85.924 153.327 86.044C153.727 86.156 154.055 86.324 154.311 86.548C154.575 86.764 154.707 87.016 154.707 87.304V88.588H154.491C154.355 87.788 154.095 87.216 153.711 86.872C153.335 86.52 152.803 86.344 152.115 86.344C151.747 86.344 151.423 86.456 151.143 86.68C150.863 86.904 150.723 87.196 150.723 87.556C150.723 87.884 150.823 88.156 151.023 88.372C151.231 88.588 151.575 88.84 152.055 89.128L153.531 90.004C154.075 90.332 154.459 90.636 154.683 90.916C154.907 91.196 155.019 91.552 155.019 91.984C155.019 92.656 154.795 93.196 154.347 93.604C153.899 94.004 153.291 94.204 152.523 94.204ZM157.866 94.12C157.61 94.12 157.35 94.068 157.086 93.964C156.822 93.852 156.594 93.672 156.402 93.424C156.218 93.176 156.126 92.848 156.126 92.44C156.126 91.832 156.406 91.4 156.966 91.144C157.534 90.888 158.274 90.76 159.186 90.76H159.546C159.546 89.976 159.438 89.44 159.222 89.152C159.006 88.864 158.694 88.72 158.286 88.72C157.926 88.72 157.638 88.796 157.422 88.948C157.206 89.1 157.054 89.364 156.966 89.74H156.426C156.426 89.468 156.442 89.256 156.474 89.104C156.506 88.944 156.59 88.796 156.726 88.66C156.87 88.516 157.106 88.412 157.434 88.348C157.77 88.276 158.134 88.24 158.526 88.24C159.174 88.24 159.686 88.416 160.062 88.768C160.438 89.112 160.626 89.776 160.626 90.76V94H160.026L159.606 93.46H159.546C159.402 93.644 159.19 93.8 158.91 93.928C158.63 94.056 158.282 94.12 157.866 94.12ZM158.406 93.58C158.67 93.58 158.89 93.516 159.066 93.388C159.242 93.26 159.402 93.084 159.546 92.86V91.24H159.186C158.594 91.24 158.126 91.352 157.782 91.576C157.438 91.792 157.266 92.08 157.266 92.44C157.266 92.808 157.374 93.092 157.59 93.292C157.814 93.484 158.086 93.58 158.406 93.58ZM162.467 87.52C162.467 87.112 162.411 86.812 162.299 86.62C162.187 86.42 161.963 86.32 161.627 86.32H161.387V86.08H162.467C162.763 86.08 162.983 86.12 163.127 86.2C163.279 86.272 163.387 86.408 163.451 86.608C163.515 86.808 163.547 87.112 163.547 87.52V94H162.467V87.52ZM166.789 94.12C166.533 94.12 166.273 94.068 166.009 93.964C165.745 93.852 165.517 93.672 165.325 93.424C165.141 93.176 165.049 92.848 165.049 92.44C165.049 91.832 165.329 91.4 165.889 91.144C166.457 90.888 167.197 90.76 168.109 90.76H168.469C168.469 89.976 168.361 89.44 168.145 89.152C167.929 88.864 167.617 88.72 167.209 88.72C166.849 88.72 166.561 88.796 166.345 88.948C166.129 89.1 165.977 89.364 165.889 89.74H165.349C165.349 89.468 165.365 89.256 165.397 89.104C165.429 88.944 165.513 88.796 165.649 88.66C165.793 88.516 166.029 88.412 166.357 88.348C166.693 88.276 167.057 88.24 167.449 88.24C168.097 88.24 168.609 88.416 168.985 88.768C169.361 89.112 169.549 89.776 169.549 90.76V94H168.949L168.529 93.46H168.469C168.325 93.644 168.113 93.8 167.833 93.928C167.553 94.056 167.205 94.12 166.789 94.12ZM167.329 93.58C167.593 93.58 167.813 93.516 167.989 93.388C168.165 93.26 168.325 93.084 168.469 92.86V91.24H168.109C167.517 91.24 167.049 91.352 166.705 91.576C166.361 91.792 166.189 92.08 166.189 92.44C166.189 92.808 166.297 93.092 166.513 93.292C166.737 93.484 167.009 93.58 167.329 93.58ZM171.438 89.8C171.438 89.392 171.382 89.092 171.27 88.9C171.158 88.7 170.934 88.6 170.598 88.6H170.478V88.36H171.438C171.742 88.36 171.97 88.404 172.122 88.492C172.282 88.572 172.394 88.708 172.458 88.9H172.518C172.662 88.716 172.854 88.56 173.094 88.432C173.342 88.304 173.63 88.24 173.958 88.24C174.278 88.24 174.518 88.3 174.678 88.42C174.814 88.524 174.954 88.704 175.098 88.96L174.618 89.32C174.53 89.2 174.402 89.112 174.234 89.056C174.066 88.992 173.874 88.96 173.658 88.96C173.418 88.96 173.198 89.016 172.998 89.128C172.798 89.232 172.638 89.376 172.518 89.56V94H171.438V89.8ZM176.628 96.04C177.02 96.04 177.34 95.948 177.588 95.764C177.844 95.588 178.064 95.26 178.248 94.78L178.488 94.12L176.568 89.44C176.344 88.864 175.904 88.544 175.248 88.48V88.24H176.268C176.964 88.24 177.444 88.56 177.708 89.2L179.076 92.524L180.588 88.36H181.188L178.848 94.78C178.616 95.412 178.36 95.84 178.08 96.064C177.8 96.288 177.436 96.4 176.988 96.4H176.628V96.04Z" fill="#4F4F4F"/>
<circle cx="246" cy="76.5" r="18" fill="#FFF6DF"/>
<path d="M245.948 77.2088C245.969 77.1877 245.991 77.1665 246.012 77.1665C245.504 76.3414 244.658 75.8336 243.621 75.8548C243.494 75.8548 243.367 75.9394 243.325 76.0664L242.288 79.1554L241.928 77.3148H241.992C242.119 77.3148 242.225 77.209 242.225 77.0821V76.4473C242.225 76.3204 242.119 76.2146 241.992 76.2146H241.167C241.04 76.2146 240.934 76.3204 240.934 76.4473V77.0821C240.934 77.209 241.04 77.3148 241.167 77.3148H241.23L240.871 79.1554L239.834 76.0664C239.792 75.9395 239.686 75.8548 239.538 75.8548C238.12 75.8125 237.062 76.8068 236.745 78.2032L236.026 81.1863C235.878 81.8634 236.385 82.498 237.063 82.498H243.938V82.4769L244.637 79.4725C244.848 78.5629 245.292 77.7801 245.948 77.2089L245.948 77.2088Z" fill="#F88341"/>
<path d="M244.869 72.3004C244.869 74.1233 243.392 75.601 241.569 75.601C239.746 75.601 238.268 74.1233 238.268 72.3004C238.268 70.4777 239.746 69 241.569 69C243.392 69 244.869 70.4777 244.869 72.3004Z" fill="#F88341"/>
<path d="M256.081 82.7094L255.404 79.7262C255.087 78.3299 254.029 77.3355 252.611 77.3779C252.484 77.3779 252.357 77.4624 252.315 77.5895L251.278 80.6784L250.919 78.8378H250.982C251.109 78.8378 251.215 78.732 251.215 78.6051V77.9704C251.215 77.8435 251.109 77.7376 250.982 77.7376H250.157C250.03 77.7376 249.924 77.8435 249.924 77.9704V78.6051C249.924 78.732 250.03 78.8378 250.157 78.8378H250.22L249.861 80.6784L248.782 77.5684C248.74 77.4415 248.634 77.3568 248.486 77.3568C247.068 77.3144 246.01 78.3088 245.693 79.7052L245.016 82.6883C244.868 83.3654 245.375 84 246.053 84H255.023C255.721 84 256.229 83.3654 256.081 82.7094L256.081 82.7094Z" fill="#F88341"/>
<path d="M253.842 73.8236C253.842 75.6465 252.365 77.124 250.542 77.124C248.719 77.124 247.242 75.6465 247.242 73.8236C247.242 72.0009 248.719 70.5232 250.542 70.5232C252.365 70.5232 253.842 72.0009 253.842 73.8236Z" fill="#F88341"/>
<path d="M277.434 67.44L277.674 65.98H278.314C279.621 65.98 280.668 65.7467 281.454 65.28C282.241 64.8 282.634 64.1533 282.634 63.34C282.634 62.7267 282.421 62.24 281.994 61.88C281.581 61.5067 281.048 61.32 280.394 61.32C279.781 61.32 279.254 61.42 278.814 61.62C278.374 61.8067 277.981 62.0267 277.634 62.28L276.934 60.92C277.401 60.5867 277.934 60.3133 278.534 60.1C279.148 59.8733 279.841 59.76 280.614 59.76C281.428 59.76 282.121 59.9133 282.694 60.22C283.281 60.5267 283.728 60.9333 284.034 61.44C284.341 61.9333 284.494 62.4667 284.494 63.04C284.494 63.9733 284.221 64.7333 283.674 65.32C283.128 65.8933 282.328 66.34 281.274 66.66C282.114 66.9533 282.761 67.3867 283.214 67.96C283.668 68.5333 283.894 69.2133 283.894 70C283.894 70.8533 283.674 71.6 283.234 72.24C282.794 72.88 282.188 73.3733 281.414 73.72C280.654 74.0667 279.781 74.24 278.794 74.24C278.034 74.24 277.314 74.14 276.634 73.94C275.968 73.7267 275.401 73.44 274.934 73.08L275.994 71.66C276.328 71.94 276.728 72.1733 277.194 72.36C277.661 72.5467 278.194 72.64 278.794 72.64C279.701 72.64 280.454 72.42 281.054 71.98C281.654 71.54 281.954 70.9067 281.954 70.08C281.954 69.3467 281.668 68.7267 281.094 68.22C280.521 67.7 279.641 67.44 278.454 67.44H277.434ZM291.426 74.24C290.093 74.24 289.073 73.7733 288.366 72.84C287.673 71.8933 287.326 70.6133 287.326 69C287.326 67.88 287.446 66.7733 287.686 65.68C287.926 64.5733 288.293 63.58 288.786 62.7C289.28 61.8067 289.906 61.0933 290.666 60.56C291.44 60.0267 292.346 59.76 293.386 59.76C294.72 59.76 295.733 60.2333 296.426 61.18C297.133 62.1133 297.486 63.3867 297.486 65C297.486 66.12 297.366 67.2333 297.126 68.34C296.886 69.4333 296.52 70.4267 296.026 71.32C295.533 72.2 294.9 72.9067 294.126 73.44C293.366 73.9733 292.466 74.24 291.426 74.24ZM291.626 72.6C292.266 72.6 292.826 72.3933 293.306 71.98C293.8 71.5533 294.213 70.98 294.546 70.26C294.88 69.54 295.126 68.72 295.286 67.8C295.46 66.8667 295.546 65.8933 295.546 64.88C295.546 63.76 295.346 62.9 294.946 62.3C294.56 61.7 293.973 61.4 293.186 61.4C292.546 61.4 291.98 61.6133 291.486 62.04C291.006 62.4533 290.6 63.02 290.266 63.74C289.933 64.46 289.68 65.2867 289.506 66.22C289.346 67.14 289.266 68.1067 289.266 69.12C289.266 70.24 289.466 71.1 289.866 71.7C290.266 72.3 290.853 72.6 291.626 72.6ZM303.419 74.24C302.085 74.24 301.065 73.7733 300.359 72.84C299.665 71.8933 299.319 70.6133 299.319 69C299.319 67.88 299.439 66.7733 299.679 65.68C299.919 64.5733 300.285 63.58 300.779 62.7C301.272 61.8067 301.899 61.0933 302.659 60.56C303.432 60.0267 304.339 59.76 305.379 59.76C306.712 59.76 307.725 60.2333 308.419 61.18C309.125 62.1133 309.479 63.3867 309.479 65C309.479 66.12 309.359 67.2333 309.119 68.34C308.879 69.4333 308.512 70.4267 308.019 71.32C307.525 72.2 306.892 72.9067 306.119 73.44C305.359 73.9733 304.459 74.24 303.419 74.24ZM303.619 72.6C304.259 72.6 304.819 72.3933 305.299 71.98C305.792 71.5533 306.205 70.98 306.539 70.26C306.872 69.54 307.119 68.72 307.279 67.8C307.452 66.8667 307.539 65.8933 307.539 64.88C307.539 63.76 307.339 62.9 306.939 62.3C306.552 61.7 305.965 61.4 305.179 61.4C304.539 61.4 303.972 61.6133 303.479 62.04C302.999 62.4533 302.592 63.02 302.259 63.74C301.925 64.46 301.672 65.2867 301.499 66.22C301.339 67.14 301.259 68.1067 301.259 69.12C301.259 70.24 301.459 71.1 301.859 71.7C302.259 72.3 302.845 72.6 303.619 72.6ZM317.031 67.92L316.451 71.16H314.751L315.331 67.92H312.271L312.531 66.36H315.591L316.171 63.1H317.871L317.291 66.36H320.331L320.071 67.92H317.031Z" fill="#2B2F34"/>
<path d="M275.486 87.52C275.486 87.112 275.43 86.812 275.318 86.62C275.206 86.42 274.982 86.32 274.646 86.32H274.406V86.08H277.526C278.294 86.08 278.986 86.244 279.602 86.572C280.218 86.9 280.526 87.536 280.526 88.48C280.526 89.104 280.366 89.584 280.046 89.92C279.726 90.256 279.366 90.48 278.966 90.592C278.574 90.704 278.214 90.76 277.886 90.76H276.566V94H275.486V87.52ZM277.466 90.34C277.722 90.34 277.994 90.276 278.282 90.148C278.57 90.012 278.814 89.8 279.014 89.512C279.222 89.224 279.326 88.86 279.326 88.42C279.326 87.98 279.222 87.616 279.014 87.328C278.814 87.04 278.57 86.832 278.282 86.704C277.994 86.568 277.722 86.5 277.466 86.5C277.186 86.5 276.886 86.54 276.566 86.62V90.22C276.886 90.3 277.186 90.34 277.466 90.34ZM283.105 94.12C282.849 94.12 282.589 94.068 282.325 93.964C282.061 93.852 281.833 93.672 281.641 93.424C281.457 93.176 281.365 92.848 281.365 92.44C281.365 91.832 281.645 91.4 282.205 91.144C282.773 90.888 283.513 90.76 284.425 90.76H284.785C284.785 89.976 284.677 89.44 284.461 89.152C284.245 88.864 283.933 88.72 283.525 88.72C283.165 88.72 282.877 88.796 282.661 88.948C282.445 89.1 282.293 89.364 282.205 89.74H281.665C281.665 89.468 281.681 89.256 281.713 89.104C281.745 88.944 281.829 88.796 281.965 88.66C282.109 88.516 282.345 88.412 282.673 88.348C283.009 88.276 283.373 88.24 283.765 88.24C284.413 88.24 284.925 88.416 285.301 88.768C285.677 89.112 285.865 89.776 285.865 90.76V94H285.265L284.845 93.46H284.785C284.641 93.644 284.429 93.8 284.149 93.928C283.869 94.056 283.521 94.12 283.105 94.12ZM283.645 93.58C283.909 93.58 284.129 93.516 284.305 93.388C284.481 93.26 284.641 93.084 284.785 92.86V91.24H284.425C283.833 91.24 283.365 91.352 283.021 91.576C282.677 91.792 282.505 92.08 282.505 92.44C282.505 92.808 282.613 93.092 282.829 93.292C283.053 93.484 283.325 93.58 283.645 93.58ZM287.754 89.8C287.754 89.392 287.698 89.092 287.586 88.9C287.474 88.7 287.25 88.6 286.914 88.6H286.794V88.36H287.754C288.058 88.36 288.286 88.404 288.438 88.492C288.598 88.572 288.71 88.708 288.774 88.9H288.834C288.978 88.716 289.17 88.56 289.41 88.432C289.658 88.304 289.946 88.24 290.274 88.24C290.594 88.24 290.834 88.3 290.994 88.42C291.13 88.524 291.27 88.704 291.414 88.96L290.934 89.32C290.846 89.2 290.718 89.112 290.55 89.056C290.382 88.992 290.19 88.96 289.974 88.96C289.734 88.96 289.514 89.016 289.314 89.128C289.114 89.232 288.954 89.376 288.834 89.56V94H287.754V89.8ZM294.216 94.12C293.768 94.12 293.416 93.992 293.16 93.736C292.904 93.48 292.776 93.088 292.776 92.56V88.84H291.936V88.36H292.776V87.28L293.376 86.56H293.856V88.36H295.296V88.84H293.856V92.56C293.856 93.28 294.136 93.64 294.696 93.64C294.888 93.64 295.048 93.62 295.176 93.58C295.312 93.54 295.452 93.48 295.596 93.4L295.716 93.64C295.532 93.776 295.328 93.892 295.104 93.988C294.88 94.076 294.584 94.12 294.216 94.12ZM296.902 89.8C296.902 89.392 296.846 89.092 296.734 88.9C296.622 88.7 296.398 88.6 296.062 88.6H295.822V88.36H296.902C297.198 88.36 297.422 88.4 297.574 88.48C297.734 88.56 297.85 88.68 297.922 88.84H297.982C298.15 88.672 298.366 88.532 298.63 88.42C298.902 88.3 299.206 88.24 299.542 88.24C300.142 88.24 300.63 88.4 301.006 88.72C301.39 89.04 301.582 89.6 301.582 90.4V94H300.502V90.4C300.502 89.84 300.374 89.432 300.118 89.176C299.87 88.912 299.558 88.78 299.182 88.78C298.758 88.78 298.358 88.992 297.982 89.416V94H296.902V89.8ZM305.566 94.12C305.022 94.12 304.562 93.992 304.186 93.736C303.81 93.472 303.526 93.12 303.334 92.68C303.142 92.232 303.046 91.732 303.046 91.18C303.046 90.636 303.142 90.14 303.334 89.692C303.526 89.244 303.802 88.892 304.162 88.636C304.53 88.372 304.958 88.24 305.446 88.24C306.254 88.24 306.854 88.468 307.246 88.924C307.646 89.372 307.846 90.024 307.846 90.88L307.822 91.36H304.186C304.186 92.032 304.33 92.58 304.618 93.004C304.906 93.428 305.302 93.64 305.806 93.64C306.182 93.64 306.498 93.56 306.754 93.4C307.018 93.24 307.262 93 307.486 92.68L307.726 92.86C307.462 93.3 307.154 93.62 306.802 93.82C306.45 94.02 306.038 94.12 305.566 94.12ZM306.706 90.88C306.706 90.176 306.602 89.64 306.394 89.272C306.186 88.904 305.87 88.72 305.446 88.72C305.206 88.72 304.99 88.816 304.798 89.008C304.606 89.192 304.454 89.448 304.342 89.776C304.238 90.104 304.186 90.472 304.186 90.88H306.706ZM309.445 89.8C309.445 89.392 309.389 89.092 309.277 88.9C309.165 88.7 308.941 88.6 308.605 88.6H308.485V88.36H309.445C309.749 88.36 309.977 88.404 310.129 88.492C310.289 88.572 310.401 88.708 310.465 88.9H310.525C310.669 88.716 310.861 88.56 311.101 88.432C311.349 88.304 311.637 88.24 311.965 88.24C312.285 88.24 312.525 88.3 312.685 88.42C312.821 88.524 312.961 88.704 313.105 88.96L312.625 89.32C312.537 89.2 312.409 89.112 312.241 89.056C312.073 88.992 311.881 88.96 311.665 88.96C311.425 88.96 311.205 89.016 311.005 89.128C310.805 89.232 310.645 89.376 310.525 89.56V94H309.445V89.8ZM320.743 94.24C319.999 94.24 319.343 94.06 318.775 93.7C318.215 93.34 317.783 92.852 317.479 92.236C317.175 91.612 317.023 90.92 317.023 90.16C317.023 89.376 317.187 88.652 317.515 87.988C317.851 87.324 318.303 86.8 318.871 86.416C319.447 86.032 320.071 85.84 320.743 85.84C321.383 85.84 321.943 85.932 322.423 86.116C322.911 86.292 323.271 86.52 323.503 86.8C323.639 86.968 323.723 87.192 323.755 87.472C323.787 87.744 323.803 88.12 323.803 88.6H323.563C323.411 87.824 323.131 87.252 322.723 86.884C322.315 86.508 321.775 86.32 321.103 86.32C320.239 86.32 319.543 86.624 319.015 87.232C318.487 87.84 318.223 88.816 318.223 90.16C318.223 90.792 318.323 91.38 318.523 91.924C318.731 92.468 319.051 92.912 319.483 93.256C319.915 93.592 320.455 93.76 321.103 93.76C321.687 93.76 322.195 93.62 322.627 93.34C323.067 93.06 323.459 92.64 323.803 92.08L324.043 92.26C323.675 92.98 323.219 93.492 322.675 93.796C322.139 94.092 321.495 94.24 320.743 94.24ZM327.775 94.12C327.231 94.12 326.759 93.992 326.359 93.736C325.959 93.472 325.655 93.116 325.447 92.668C325.239 92.22 325.135 91.724 325.135 91.18C325.135 90.636 325.239 90.14 325.447 89.692C325.655 89.244 325.959 88.892 326.359 88.636C326.759 88.372 327.231 88.24 327.775 88.24C328.319 88.24 328.791 88.372 329.191 88.636C329.591 88.892 329.895 89.244 330.103 89.692C330.311 90.14 330.415 90.636 330.415 91.18C330.415 91.724 330.311 92.22 330.103 92.668C329.895 93.116 329.591 93.472 329.191 93.736C328.791 93.992 328.319 94.12 327.775 94.12ZM327.775 93.64C328.071 93.64 328.331 93.532 328.555 93.316C328.787 93.1 328.963 92.804 329.083 92.428C329.211 92.052 329.275 91.636 329.275 91.18C329.275 90.724 329.211 90.308 329.083 89.932C328.963 89.556 328.787 89.26 328.555 89.044C328.331 88.828 328.071 88.72 327.775 88.72C327.479 88.72 327.215 88.828 326.983 89.044C326.759 89.26 326.583 89.556 326.455 89.932C326.335 90.308 326.275 90.724 326.275 91.18C326.275 91.636 326.335 92.052 326.455 92.428C326.583 92.804 326.759 93.1 326.983 93.316C327.215 93.532 327.479 93.64 327.775 93.64ZM332.122 89.8C332.122 89.392 332.066 89.092 331.954 88.9C331.842 88.7 331.618 88.6 331.282 88.6H331.042V88.36H332.122C332.418 88.36 332.642 88.4 332.794 88.48C332.954 88.56 333.07 88.68 333.142 88.84H333.202C333.37 88.672 333.586 88.532 333.85 88.42C334.122 88.3 334.426 88.24 334.762 88.24C335.098 88.24 335.386 88.304 335.626 88.432C335.866 88.552 336.058 88.768 336.202 89.08C336.41 88.816 336.674 88.612 336.994 88.468C337.322 88.316 337.658 88.24 338.002 88.24C338.514 88.24 338.922 88.4 339.226 88.72C339.53 89.04 339.682 89.6 339.682 90.4V94H338.602V90.4C338.602 89.824 338.522 89.412 338.362 89.164C338.202 88.908 337.962 88.78 337.642 88.78C337.418 88.78 337.182 88.864 336.934 89.032C336.686 89.192 336.502 89.368 336.382 89.56C336.422 89.68 336.442 89.96 336.442 90.4V94H335.362V90.4C335.362 89.824 335.282 89.412 335.122 89.164C334.962 88.908 334.722 88.78 334.402 88.78C333.978 88.78 333.578 88.992 333.202 89.416V94H332.122V89.8ZM341.664 89.8C341.664 89.392 341.608 89.092 341.496 88.9C341.384 88.7 341.16 88.6 340.824 88.6H340.584V88.36H341.664C341.968 88.36 342.196 88.404 342.348 88.492C342.508 88.572 342.62 88.708 342.684 88.9H342.744C342.888 88.716 343.092 88.56 343.356 88.432C343.62 88.304 343.956 88.24 344.364 88.24C345.052 88.24 345.584 88.52 345.96 89.08C346.336 89.632 346.524 90.332 346.524 91.18C346.524 92.036 346.328 92.74 345.936 93.292C345.552 93.844 344.988 94.12 344.244 94.12C343.94 94.12 343.672 94.088 343.44 94.024C343.208 93.96 342.976 93.872 342.744 93.76V96.28H341.664V89.8ZM343.884 93.64C344.396 93.64 344.772 93.416 345.012 92.968C345.26 92.52 345.384 91.924 345.384 91.18C345.384 90.444 345.268 89.852 345.036 89.404C344.804 88.948 344.46 88.72 344.004 88.72C343.468 88.72 343.048 88.96 342.744 89.44V93.28C342.984 93.392 343.192 93.48 343.368 93.544C343.544 93.608 343.716 93.64 343.884 93.64ZM349.405 94.12C349.149 94.12 348.889 94.068 348.625 93.964C348.361 93.852 348.133 93.672 347.941 93.424C347.757 93.176 347.665 92.848 347.665 92.44C347.665 91.832 347.945 91.4 348.505 91.144C349.073 90.888 349.813 90.76 350.725 90.76H351.085C351.085 89.976 350.977 89.44 350.761 89.152C350.545 88.864 350.233 88.72 349.825 88.72C349.465 88.72 349.177 88.796 348.961 88.948C348.745 89.1 348.593 89.364 348.505 89.74H347.965C347.965 89.468 347.981 89.256 348.013 89.104C348.045 88.944 348.129 88.796 348.265 88.66C348.409 88.516 348.645 88.412 348.973 88.348C349.309 88.276 349.673 88.24 350.065 88.24C350.713 88.24 351.225 88.416 351.601 88.768C351.977 89.112 352.165 89.776 352.165 90.76V94H351.565L351.145 93.46H351.085C350.941 93.644 350.729 93.8 350.449 93.928C350.169 94.056 349.821 94.12 349.405 94.12ZM349.945 93.58C350.209 93.58 350.429 93.516 350.605 93.388C350.781 93.26 350.941 93.084 351.085 92.86V91.24H350.725C350.133 91.24 349.665 91.352 349.321 91.576C348.977 91.792 348.805 92.08 348.805 92.44C348.805 92.808 348.913 93.092 349.129 93.292C349.353 93.484 349.625 93.58 349.945 93.58ZM354.139 89.8C354.139 89.392 354.083 89.092 353.971 88.9C353.859 88.7 353.635 88.6 353.299 88.6H353.059V88.36H354.139C354.435 88.36 354.659 88.4 354.811 88.48C354.971 88.56 355.087 88.68 355.159 88.84H355.219C355.387 88.672 355.603 88.532 355.867 88.42C356.139 88.3 356.443 88.24 356.779 88.24C357.379 88.24 357.867 88.4 358.243 88.72C358.627 89.04 358.819 89.6 358.819 90.4V94H357.739V90.4C357.739 89.84 357.611 89.432 357.355 89.176C357.107 88.912 356.795 88.78 356.419 88.78C355.995 88.78 355.595 88.992 355.219 89.416V94H354.139V89.8ZM361.242 87.64C361.058 87.64 360.898 87.564 360.762 87.412C360.634 87.26 360.57 87.08 360.57 86.872C360.57 86.704 360.618 86.572 360.714 86.476C360.818 86.38 360.954 86.332 361.122 86.332C361.306 86.332 361.462 86.408 361.59 86.56C361.726 86.712 361.794 86.892 361.794 87.1C361.794 87.268 361.742 87.4 361.638 87.496C361.542 87.592 361.41 87.64 361.242 87.64ZM360.786 89.8C360.786 89.392 360.73 89.092 360.618 88.9C360.506 88.7 360.282 88.6 359.946 88.6H359.706V88.36H360.786C361.082 88.36 361.302 88.4 361.446 88.48C361.598 88.552 361.706 88.688 361.77 88.888C361.834 89.088 361.866 89.392 361.866 89.8V94H360.786V89.8ZM365.875 94.12C365.331 94.12 364.871 93.992 364.495 93.736C364.119 93.472 363.835 93.12 363.643 92.68C363.451 92.232 363.355 91.732 363.355 91.18C363.355 90.636 363.451 90.14 363.643 89.692C363.835 89.244 364.111 88.892 364.471 88.636C364.839 88.372 365.267 88.24 365.755 88.24C366.563 88.24 367.163 88.468 367.555 88.924C367.955 89.372 368.155 90.024 368.155 90.88L368.131 91.36H364.495C364.495 92.032 364.639 92.58 364.927 93.004C365.215 93.428 365.611 93.64 366.115 93.64C366.491 93.64 366.807 93.56 367.063 93.4C367.327 93.24 367.571 93 367.795 92.68L368.035 92.86C367.771 93.3 367.463 93.62 367.111 93.82C366.759 94.02 366.347 94.12 365.875 94.12ZM367.015 90.88C367.015 90.176 366.911 89.64 366.703 89.272C366.495 88.904 366.179 88.72 365.755 88.72C365.515 88.72 365.299 88.816 365.107 89.008C364.915 89.192 364.763 89.448 364.651 89.776C364.547 90.104 364.495 90.472 364.495 90.88H367.015ZM371.542 94.12C370.622 94.12 370.002 93.96 369.682 93.64C369.546 93.504 369.462 93.352 369.43 93.184C369.398 93.008 369.382 92.74 369.382 92.38H369.622C369.694 92.78 369.866 93.092 370.138 93.316C370.418 93.532 370.806 93.64 371.302 93.64C371.742 93.64 372.07 93.564 372.286 93.412C372.51 93.26 372.622 93.056 372.622 92.8C372.622 92.568 372.534 92.368 372.358 92.2C372.19 92.032 371.918 91.872 371.542 91.72L370.822 91.42C370.342 91.228 369.982 91.004 369.742 90.748C369.502 90.492 369.382 90.176 369.382 89.8C369.382 89.312 369.566 88.932 369.934 88.66C370.302 88.38 370.778 88.24 371.362 88.24C372.242 88.24 372.842 88.4 373.162 88.72C373.298 88.856 373.382 89.008 373.414 89.176C373.446 89.344 373.462 89.612 373.462 89.98H373.222C373.158 89.58 372.99 89.272 372.718 89.056C372.446 88.832 372.074 88.72 371.602 88.72C371.226 88.72 370.93 88.8 370.714 88.96C370.506 89.112 370.402 89.312 370.402 89.56C370.402 89.976 370.722 90.316 371.362 90.58L372.082 90.88C372.626 91.104 373.022 91.344 373.27 91.6C373.518 91.848 373.642 92.168 373.642 92.56C373.642 93.048 373.446 93.432 373.054 93.712C372.662 93.984 372.158 94.12 371.542 94.12Z" fill="#4F4F4F"/>
<circle cx="443" cy="78" r="18" fill="#DFFFE4"/>
<g clip-path="url(#clip1_0_1230)">
<path d="M442.5 68.875L449.69 70.4727C450.09 70.562 450.375 70.9164 450.375 71.3268V80.0654C450.375 81.8206 449.497 83.4604 448.037 84.4334L442.5 88.125L436.963 84.4334C435.502 83.4595 434.625 81.8206 434.625 80.0662V71.3268C434.625 70.9164 434.91 70.562 435.31 70.4727L442.5 68.875ZM446.396 75.1943L442.064 79.5246L439.59 77.0501L438.353 78.2874L442.065 82L447.634 76.4315L446.396 75.1943Z" fill="#3ECD44"/>
</g>
<path d="M476.294 74.9L478.074 64.84L475.094 66.92L474.274 65.48L478.954 62.5H480.274L478.094 74.9H480.474L480.194 76.5H473.154L473.434 74.9H476.294ZM488.426 76.74C487.093 76.74 486.073 76.2733 485.366 75.34C484.673 74.3933 484.326 73.1133 484.326 71.5C484.326 70.38 484.446 69.2733 484.686 68.18C484.926 67.0733 485.293 66.08 485.786 65.2C486.28 64.3067 486.906 63.5933 487.666 63.06C488.44 62.5267 489.346 62.26 490.386 62.26C491.72 62.26 492.733 62.7333 493.426 63.68C494.133 64.6133 494.486 65.8867 494.486 67.5C494.486 68.62 494.366 69.7333 494.126 70.84C493.886 71.9333 493.52 72.9267 493.026 73.82C492.533 74.7 491.9 75.4067 491.126 75.94C490.366 76.4733 489.466 76.74 488.426 76.74ZM488.626 75.1C489.266 75.1 489.826 74.8933 490.306 74.48C490.8 74.0533 491.213 73.48 491.546 72.76C491.88 72.04 492.126 71.22 492.286 70.3C492.46 69.3667 492.546 68.3933 492.546 67.38C492.546 66.26 492.346 65.4 491.946 64.8C491.56 64.2 490.973 63.9 490.186 63.9C489.546 63.9 488.98 64.1133 488.486 64.54C488.006 64.9533 487.6 65.52 487.266 66.24C486.933 66.96 486.68 67.7867 486.506 68.72C486.346 69.64 486.266 70.6067 486.266 71.62C486.266 72.74 486.466 73.6 486.866 74.2C487.266 74.8 487.853 75.1 488.626 75.1ZM500.419 76.74C499.085 76.74 498.065 76.2733 497.359 75.34C496.665 74.3933 496.319 73.1133 496.319 71.5C496.319 70.38 496.439 69.2733 496.679 68.18C496.919 67.0733 497.285 66.08 497.779 65.2C498.272 64.3067 498.899 63.5933 499.659 63.06C500.432 62.5267 501.339 62.26 502.379 62.26C503.712 62.26 504.725 62.7333 505.419 63.68C506.125 64.6133 506.479 65.8867 506.479 67.5C506.479 68.62 506.359 69.7333 506.119 70.84C505.879 71.9333 505.512 72.9267 505.019 73.82C504.525 74.7 503.892 75.4067 503.119 75.94C502.359 76.4733 501.459 76.74 500.419 76.74ZM500.619 75.1C501.259 75.1 501.819 74.8933 502.299 74.48C502.792 74.0533 503.205 73.48 503.539 72.76C503.872 72.04 504.119 71.22 504.279 70.3C504.452 69.3667 504.539 68.3933 504.539 67.38C504.539 66.26 504.339 65.4 503.939 64.8C503.552 64.2 502.965 63.9 502.179 63.9C501.539 63.9 500.972 64.1133 500.479 64.54C499.999 64.9533 499.592 65.52 499.259 66.24C498.925 66.96 498.672 67.7867 498.499 68.72C498.339 69.64 498.259 70.6067 498.259 71.62C498.259 72.74 498.459 73.6 498.859 74.2C499.259 74.8 499.845 75.1 500.619 75.1ZM510.331 76.48L521.591 61.7L522.691 62.5L511.431 77.28L510.331 76.48ZM515.491 65.56C515.491 66.0933 515.417 66.68 515.271 67.32C515.137 67.96 514.904 68.5667 514.571 69.14C514.251 69.7133 513.817 70.1867 513.271 70.56C512.737 70.92 512.071 71.1 511.271 71.1C510.337 71.1 509.611 70.8133 509.091 70.24C508.584 69.6533 508.331 68.8667 508.331 67.88C508.331 67.32 508.397 66.7267 508.531 66.1C508.677 65.46 508.911 64.86 509.231 64.3C509.564 63.7267 510.004 63.26 510.551 62.9C511.111 62.54 511.797 62.36 512.611 62.36C513.544 62.36 514.257 62.64 514.751 63.2C515.244 63.76 515.491 64.5467 515.491 65.56ZM511.391 69.76C511.884 69.76 512.291 69.6067 512.611 69.3C512.931 68.9933 513.177 68.6067 513.351 68.14C513.524 67.6733 513.644 67.2 513.711 66.72C513.777 66.24 513.811 65.8267 513.811 65.48C513.811 64.28 513.351 63.68 512.431 63.68C511.937 63.68 511.531 63.8333 511.211 64.14C510.904 64.4467 510.664 64.8333 510.491 65.3C510.317 65.7533 510.191 66.2267 510.111 66.72C510.044 67.2 510.011 67.6133 510.011 67.96C510.011 69.16 510.471 69.76 511.391 69.76ZM524.651 71.1C524.651 71.6333 524.577 72.22 524.431 72.86C524.297 73.5 524.064 74.1067 523.731 74.68C523.411 75.2533 522.977 75.7267 522.431 76.1C521.897 76.46 521.231 76.64 520.431 76.64C519.497 76.64 518.771 76.3533 518.251 75.78C517.744 75.1933 517.491 74.4067 517.491 73.42C517.491 72.86 517.557 72.2667 517.691 71.64C517.837 71 518.071 70.4 518.391 69.84C518.724 69.2667 519.164 68.8 519.711 68.44C520.271 68.08 520.957 67.9 521.771 67.9C522.704 67.9 523.417 68.18 523.911 68.74C524.404 69.3 524.651 70.0867 524.651 71.1ZM520.551 75.3C521.044 75.3 521.451 75.1467 521.771 74.84C522.091 74.5333 522.337 74.1467 522.511 73.68C522.684 73.2133 522.804 72.74 522.871 72.26C522.937 71.78 522.971 71.3667 522.971 71.02C522.971 69.82 522.511 69.22 521.591 69.22C521.097 69.22 520.691 69.3733 520.371 69.68C520.064 69.9867 519.824 70.3733 519.651 70.84C519.477 71.2933 519.351 71.7667 519.271 72.26C519.204 72.74 519.171 73.1533 519.171 73.5C519.171 74.7 519.631 75.3 520.551 75.3Z" fill="#2B2F34"/>
<path d="M471.106 96.904C471.49 96.904 471.774 96.7 471.958 96.292C472.15 95.884 472.246 95.308 472.246 94.564V87.58H473.326V94.564C473.326 95.188 473.258 95.684 473.122 96.052C472.994 96.428 472.77 96.704 472.45 96.88C472.13 97.056 471.682 97.144 471.106 97.144V96.904ZM477.561 95.62C477.017 95.62 476.545 95.492 476.145 95.236C475.745 94.972 475.441 94.616 475.233 94.168C475.025 93.72 474.921 93.224 474.921 92.68C474.921 92.136 475.025 91.64 475.233 91.192C475.441 90.744 475.745 90.392 476.145 90.136C476.545 89.872 477.017 89.74 477.561 89.74C478.105 89.74 478.577 89.872 478.977 90.136C479.377 90.392 479.681 90.744 479.889 91.192C480.097 91.64 480.201 92.136 480.201 92.68C480.201 93.224 480.097 93.72 479.889 94.168C479.681 94.616 479.377 94.972 478.977 95.236C478.577 95.492 478.105 95.62 477.561 95.62ZM477.561 95.14C477.857 95.14 478.117 95.032 478.341 94.816C478.573 94.6 478.749 94.304 478.869 93.928C478.997 93.552 479.061 93.136 479.061 92.68C479.061 92.224 478.997 91.808 478.869 91.432C478.749 91.056 478.573 90.76 478.341 90.544C478.117 90.328 477.857 90.22 477.561 90.22C477.265 90.22 477.001 90.328 476.769 90.544C476.545 90.76 476.369 91.056 476.241 91.432C476.121 91.808 476.061 92.224 476.061 92.68C476.061 93.136 476.121 93.552 476.241 93.928C476.369 94.304 476.545 94.6 476.769 94.816C477.001 95.032 477.265 95.14 477.561 95.14ZM484.428 95.62C484.02 95.62 483.684 95.556 483.42 95.428C483.156 95.3 482.952 95.144 482.808 94.96H482.748L482.328 95.5H481.728V89.02C481.728 88.612 481.672 88.312 481.56 88.12C481.448 87.92 481.224 87.82 480.888 87.82H480.648V87.58H481.728C482.024 87.58 482.244 87.62 482.388 87.7C482.54 87.772 482.648 87.908 482.712 88.108C482.776 88.308 482.808 88.612 482.808 89.02V90.1C483.04 89.988 483.272 89.9 483.504 89.836C483.736 89.772 484.004 89.74 484.308 89.74C485.052 89.74 485.616 90.016 486 90.568C486.392 91.12 486.588 91.824 486.588 92.68C486.588 93.528 486.4 94.232 486.024 94.792C485.648 95.344 485.116 95.62 484.428 95.62ZM484.068 95.14C484.524 95.14 484.868 94.916 485.1 94.468C485.332 94.012 485.448 93.416 485.448 92.68C485.448 91.936 485.324 91.34 485.076 90.892C484.836 90.444 484.46 90.22 483.948 90.22C483.78 90.22 483.608 90.252 483.432 90.316C483.256 90.38 483.048 90.468 482.808 90.58V94.42C482.952 94.636 483.12 94.812 483.312 94.948C483.512 95.076 483.764 95.14 484.068 95.14ZM494.994 95.74C494.21 95.74 493.506 95.548 492.882 95.164C492.266 94.78 491.782 94.26 491.43 93.604C491.086 92.94 490.914 92.212 490.914 91.42C490.914 90.66 491.066 89.972 491.37 89.356C491.674 88.732 492.106 88.24 492.666 87.88C493.234 87.52 493.89 87.34 494.634 87.34C495.322 87.34 495.914 87.432 496.41 87.616C496.914 87.792 497.282 88.02 497.514 88.3C497.642 88.46 497.722 88.672 497.754 88.936C497.794 89.2 497.814 89.528 497.814 89.92H497.574C497.422 89.216 497.134 88.692 496.71 88.348C496.286 87.996 495.714 87.82 494.994 87.82C494.346 87.82 493.806 87.992 493.374 88.336C492.942 88.672 492.622 89.112 492.414 89.656C492.214 90.2 492.114 90.788 492.114 91.42C492.114 92.772 492.378 93.752 492.906 94.36C493.434 94.96 494.13 95.26 494.994 95.26C495.402 95.26 495.75 95.224 496.038 95.152C496.326 95.08 496.598 94.976 496.854 94.84V92.752C496.854 92.48 496.898 92.244 496.986 92.044C497.074 91.844 497.262 91.68 497.55 91.552C497.846 91.416 498.274 91.348 498.834 91.348V91.588C498.474 91.588 498.234 91.68 498.114 91.864C497.994 92.048 497.934 92.336 497.934 92.728V94.984C497.502 95.248 497.05 95.44 496.578 95.56C496.106 95.68 495.578 95.74 494.994 95.74ZM502.058 95.62C501.458 95.62 500.966 95.46 500.582 95.14C500.206 94.82 500.018 94.26 500.018 93.46V91.3C500.018 90.892 499.962 90.592 499.85 90.4C499.738 90.2 499.514 90.1 499.178 90.1H499.058V89.86H500.018C500.314 89.86 500.534 89.9 500.678 89.98C500.83 90.052 500.938 90.188 501.002 90.388C501.066 90.588 501.098 90.892 501.098 91.3V93.46C501.098 94.02 501.222 94.432 501.47 94.696C501.726 94.952 502.042 95.08 502.418 95.08C502.842 95.08 503.242 94.868 503.618 94.444V89.86H504.698V95.5H504.098L503.678 95.02H503.618C503.45 95.188 503.23 95.332 502.958 95.452C502.694 95.564 502.394 95.62 502.058 95.62ZM507.892 95.62C507.636 95.62 507.376 95.568 507.112 95.464C506.848 95.352 506.62 95.172 506.428 94.924C506.244 94.676 506.152 94.348 506.152 93.94C506.152 93.332 506.432 92.9 506.992 92.644C507.56 92.388 508.3 92.26 509.212 92.26H509.572C509.572 91.476 509.464 90.94 509.248 90.652C509.032 90.364 508.72 90.22 508.312 90.22C507.952 90.22 507.664 90.296 507.448 90.448C507.232 90.6 507.08 90.864 506.992 91.24H506.452C506.452 90.968 506.468 90.756 506.5 90.604C506.532 90.444 506.616 90.296 506.752 90.16C506.896 90.016 507.132 89.912 507.46 89.848C507.796 89.776 508.16 89.74 508.552 89.74C509.2 89.74 509.712 89.916 510.088 90.268C510.464 90.612 510.652 91.276 510.652 92.26V95.5H510.052L509.632 94.96H509.572C509.428 95.144 509.216 95.3 508.936 95.428C508.656 95.556 508.308 95.62 507.892 95.62ZM508.432 95.08C508.696 95.08 508.916 95.016 509.092 94.888C509.268 94.76 509.428 94.584 509.572 94.36V92.74H509.212C508.62 92.74 508.152 92.852 507.808 93.076C507.464 93.292 507.292 93.58 507.292 93.94C507.292 94.308 507.4 94.592 507.616 94.792C507.84 94.984 508.112 95.08 508.432 95.08ZM512.542 91.3C512.542 90.892 512.486 90.592 512.374 90.4C512.262 90.2 512.038 90.1 511.702 90.1H511.582V89.86H512.542C512.846 89.86 513.074 89.904 513.226 89.992C513.386 90.072 513.498 90.208 513.562 90.4H513.622C513.766 90.216 513.958 90.06 514.198 89.932C514.446 89.804 514.734 89.74 515.062 89.74C515.382 89.74 515.622 89.8 515.782 89.92C515.918 90.024 516.058 90.204 516.202 90.46L515.722 90.82C515.634 90.7 515.506 90.612 515.338 90.556C515.17 90.492 514.978 90.46 514.762 90.46C514.522 90.46 514.302 90.516 514.102 90.628C513.902 90.732 513.742 90.876 513.622 91.06V95.5H512.542V91.3ZM518.679 95.62C518.423 95.62 518.163 95.568 517.899 95.464C517.635 95.352 517.407 95.172 517.215 94.924C517.031 94.676 516.939 94.348 516.939 93.94C516.939 93.332 517.219 92.9 517.779 92.644C518.347 92.388 519.087 92.26 519.999 92.26H520.359C520.359 91.476 520.251 90.94 520.035 90.652C519.819 90.364 519.507 90.22 519.099 90.22C518.739 90.22 518.451 90.296 518.235 90.448C518.019 90.6 517.867 90.864 517.779 91.24H517.239C517.239 90.968 517.255 90.756 517.287 90.604C517.319 90.444 517.403 90.296 517.539 90.16C517.683 90.016 517.919 89.912 518.247 89.848C518.583 89.776 518.947 89.74 519.339 89.74C519.987 89.74 520.499 89.916 520.875 90.268C521.251 90.612 521.439 91.276 521.439 92.26V95.5H520.839L520.419 94.96H520.359C520.215 95.144 520.003 95.3 519.723 95.428C519.443 95.556 519.095 95.62 518.679 95.62ZM519.219 95.08C519.483 95.08 519.703 95.016 519.879 94.888C520.055 94.76 520.215 94.584 520.359 94.36V92.74H519.999C519.407 92.74 518.939 92.852 518.595 93.076C518.251 93.292 518.079 93.58 518.079 93.94C518.079 94.308 518.187 94.592 518.403 94.792C518.627 94.984 518.899 95.08 519.219 95.08ZM523.412 91.3C523.412 90.892 523.356 90.592 523.244 90.4C523.132 90.2 522.908 90.1 522.572 90.1H522.332V89.86H523.412C523.708 89.86 523.932 89.9 524.084 89.98C524.244 90.06 524.36 90.18 524.432 90.34H524.492C524.66 90.172 524.876 90.032 525.14 89.92C525.412 89.8 525.716 89.74 526.052 89.74C526.652 89.74 527.14 89.9 527.516 90.22C527.9 90.54 528.092 91.1 528.092 91.9V95.5H527.012V91.9C527.012 91.34 526.884 90.932 526.628 90.676C526.38 90.412 526.068 90.28 525.692 90.28C525.268 90.28 524.868 90.492 524.492 90.916V95.5H523.412V91.3ZM531.548 95.62C531.1 95.62 530.748 95.492 530.492 95.236C530.236 94.98 530.108 94.588 530.108 94.06V90.34H529.268V89.86H530.108V88.78L530.708 88.06H531.188V89.86H532.628V90.34H531.188V94.06C531.188 94.78 531.468 95.14 532.028 95.14C532.22 95.14 532.38 95.12 532.508 95.08C532.644 95.04 532.784 94.98 532.928 94.9L533.048 95.14C532.864 95.276 532.66 95.392 532.436 95.488C532.212 95.576 531.916 95.62 531.548 95.62ZM536.25 95.62C535.706 95.62 535.246 95.492 534.87 95.236C534.494 94.972 534.21 94.62 534.018 94.18C533.826 93.732 533.73 93.232 533.73 92.68C533.73 92.136 533.826 91.64 534.018 91.192C534.21 90.744 534.486 90.392 534.846 90.136C535.214 89.872 535.642 89.74 536.13 89.74C536.938 89.74 537.538 89.968 537.93 90.424C538.33 90.872 538.53 91.524 538.53 92.38L538.506 92.86H534.87C534.87 93.532 535.014 94.08 535.302 94.504C535.59 94.928 535.986 95.14 536.49 95.14C536.866 95.14 537.182 95.06 537.438 94.9C537.702 94.74 537.946 94.5 538.17 94.18L538.41 94.36C538.146 94.8 537.838 95.12 537.486 95.32C537.134 95.52 536.722 95.62 536.25 95.62ZM537.39 92.38C537.39 91.676 537.286 91.14 537.078 90.772C536.87 90.404 536.554 90.22 536.13 90.22C535.89 90.22 535.674 90.316 535.482 90.508C535.29 90.692 535.138 90.948 535.026 91.276C534.922 91.604 534.87 91.972 534.87 92.38H537.39ZM542.23 95.62C541.686 95.62 541.226 95.492 540.85 95.236C540.474 94.972 540.19 94.62 539.998 94.18C539.806 93.732 539.71 93.232 539.71 92.68C539.71 92.136 539.806 91.64 539.998 91.192C540.19 90.744 540.466 90.392 540.826 90.136C541.194 89.872 541.622 89.74 542.11 89.74C542.918 89.74 543.518 89.968 543.91 90.424C544.31 90.872 544.51 91.524 544.51 92.38L544.486 92.86H540.85C540.85 93.532 540.994 94.08 541.282 94.504C541.57 94.928 541.966 95.14 542.47 95.14C542.846 95.14 543.162 95.06 543.418 94.9C543.682 94.74 543.926 94.5 544.15 94.18L544.39 94.36C544.126 94.8 543.818 95.12 543.466 95.32C543.114 95.52 542.702 95.62 542.23 95.62ZM543.37 92.38C543.37 91.676 543.266 91.14 543.058 90.772C542.85 90.404 542.534 90.22 542.11 90.22C541.87 90.22 541.654 90.316 541.462 90.508C541.27 90.692 541.118 90.948 541.006 91.276C540.902 91.604 540.85 91.972 540.85 92.38H543.37Z" fill="#4F4F4F"/>
<circle cx="617.893" cy="76.5" r="18" fill="#DFF3FF"/>
<path d="M615.407 76.2224C615.86 76.6766 616.467 76.9444 617.108 76.9729V77.515H617.111C617.117 77.7848 617.338 78.0001 617.608 78.0001C617.877 78.0001 618.098 77.7848 618.104 77.515H618.107V76.9491C618.548 76.9178 618.961 76.7216 619.265 76.3997C619.568 76.0778 619.739 75.6537 619.744 75.2114C619.774 74.7495 619.609 74.2963 619.289 73.9617C618.971 73.6948 618.577 73.5355 618.163 73.5068L617.467 73.4077H617.467C617.266 73.3868 617.076 73.3058 616.921 73.1752C616.807 73.0647 616.744 72.9115 616.748 72.7526C616.748 72.3484 617.045 72.0085 617.657 72.0085C618.098 71.9745 618.535 72.1204 618.867 72.4128L618.868 72.4115V72.4116C618.964 72.5113 619.096 72.5675 619.235 72.5675C619.373 72.5675 619.506 72.5113 619.602 72.4116C619.698 72.312 619.75 72.1776 619.745 72.0393C619.74 71.9009 619.679 71.7705 619.576 71.6779C619.176 71.2992 618.657 71.0715 618.107 71.034V70.4725C618.086 70.2105 617.87 70.0068 617.608 70.0002C617.347 70.0009 617.129 70.2003 617.106 70.4603L617.108 71.0705V71.0706C616.694 71.1287 616.317 71.3362 616.046 71.6539C615.775 71.9716 615.63 72.3776 615.638 72.7951C615.613 73.223 615.766 73.6421 616.06 73.9536C616.379 74.234 616.779 74.4054 617.203 74.4429L617.914 74.542C618.106 74.5516 618.29 74.6241 618.436 74.7483C618.564 74.8807 618.631 75.0615 618.618 75.2456C618.618 75.7169 618.254 75.9735 617.575 75.9735C617.058 76.0068 616.55 75.8312 616.164 75.4865C616.067 75.3856 615.934 75.3275 615.795 75.325C615.655 75.3227 615.52 75.3759 615.42 75.4733C615.319 75.5708 615.262 75.7042 615.261 75.844C615.259 75.9838 615.313 76.1184 615.411 76.2181L615.407 76.2224Z" fill="#4499FE"/>
<path d="M625.988 73.7142L623.502 72.3332V70.0001C623.502 69.4695 623.291 68.9609 622.916 68.5858C622.541 68.2108 622.033 68 621.502 68H613.502C612.972 68 612.463 68.2108 612.088 68.5858C611.713 68.9609 611.502 69.4695 611.502 70.0001V72.3332L609.017 73.7142C608.861 73.8008 608.731 73.9275 608.64 74.0812C608.55 74.235 608.502 74.41 608.502 74.5884V83C608.502 83.7957 608.818 84.5588 609.381 85.1213C609.944 85.6839 610.707 86 611.502 86H623.502C624.298 86 625.061 85.6839 625.624 85.1213C626.186 84.5588 626.502 83.7957 626.502 83V74.5884C626.502 74.41 626.455 74.235 626.364 74.0812C626.274 73.9275 626.144 73.8008 625.988 73.7142H625.988ZM623.837 76.921L617.837 79.921C617.626 80.0263 617.378 80.0263 617.167 79.921L611.167 76.921C610.989 76.8321 610.854 76.6762 610.791 76.4875C610.728 76.2989 610.742 76.093 610.831 75.915C610.92 75.7371 611.076 75.6016 611.264 75.5387C611.453 75.4757 611.659 75.4903 611.837 75.579L612.502 75.9117V70C612.502 69.7348 612.608 69.4807 612.795 69.2932C612.983 69.1057 613.237 69.0002 613.502 68.9999H621.502H621.502C621.767 69.0002 622.021 69.1057 622.209 69.2932C622.396 69.4807 622.502 69.7348 622.502 70V75.9117L623.167 75.5792V75.579C623.345 75.4903 623.551 75.4757 623.74 75.5387C623.928 75.6016 624.084 75.7371 624.173 75.915C624.262 76.093 624.276 76.2989 624.213 76.4875C624.15 76.6762 624.015 76.8321 623.837 76.921H623.837Z" fill="#4499FE"/>
<path d="M650.787 66.32C650.147 65.92 649.667 65.4933 649.347 65.04C649.04 64.5733 648.887 64.02 648.887 63.38C648.887 62.6867 649.087 62.0667 649.487 61.52C649.887 60.9733 650.414 60.5467 651.067 60.24C651.734 59.92 652.467 59.76 653.267 59.76C654.08 59.76 654.787 59.9133 655.387 60.22C655.987 60.5267 656.447 60.9333 656.767 61.44C657.1 61.9333 657.267 62.46 657.267 63.02C657.267 63.9 657 64.6133 656.467 65.16C655.947 65.6933 655.18 66.1467 654.167 66.52C655.074 66.9467 655.74 67.4333 656.167 67.98C656.607 68.5267 656.827 69.1933 656.827 69.98C656.827 70.8467 656.587 71.6 656.107 72.24C655.64 72.88 655.007 73.3733 654.207 73.72C653.407 74.0667 652.507 74.24 651.507 74.24C650.64 74.24 649.86 74.0867 649.167 73.78C648.474 73.4733 647.927 73.0467 647.527 72.5C647.127 71.9533 646.927 71.3267 646.927 70.62C646.927 69.5667 647.247 68.6933 647.887 68C648.54 67.2933 649.507 66.7333 650.787 66.32ZM653.167 61.24C652.754 61.24 652.354 61.32 651.967 61.48C651.594 61.64 651.287 61.88 651.047 62.2C650.807 62.5067 650.687 62.8933 650.687 63.36C650.687 63.8667 650.887 64.3267 651.287 64.74C651.7 65.14 652.207 65.4867 652.807 65.78C653.54 65.5667 654.167 65.24 654.687 64.8C655.207 64.3467 655.467 63.8267 655.467 63.24C655.467 62.6933 655.254 62.2267 654.827 61.84C654.414 61.44 653.86 61.24 653.167 61.24ZM651.707 72.64C652.267 72.64 652.794 72.54 653.287 72.34C653.78 72.1267 654.174 71.8267 654.467 71.44C654.774 71.0533 654.927 70.5933 654.927 70.06C654.927 69.4733 654.694 68.9333 654.227 68.44C653.76 67.9467 653.094 67.54 652.227 67.22C651.654 67.34 651.107 67.54 650.587 67.82C650.067 68.0867 649.64 68.4333 649.307 68.86C648.987 69.2733 648.827 69.7667 648.827 70.34C648.827 70.9933 649.1 71.54 649.647 71.98C650.194 72.42 650.88 72.64 651.707 72.64ZM660.479 74.24C660.106 74.24 659.806 74.1267 659.579 73.9C659.353 73.66 659.239 73.3933 659.239 73.1C659.239 72.6067 659.393 72.2267 659.699 71.96C660.006 71.6933 660.346 71.56 660.719 71.56C661.106 71.56 661.406 71.6733 661.619 71.9C661.846 72.1267 661.959 72.3933 661.959 72.7C661.959 73.1933 661.806 73.5733 661.499 73.84C661.206 74.1067 660.866 74.24 660.479 74.24ZM667.315 67.44L667.555 65.98H668.195C669.502 65.98 670.549 65.7467 671.335 65.28C672.122 64.8 672.515 64.1533 672.515 63.34C672.515 62.7267 672.302 62.24 671.875 61.88C671.462 61.5067 670.929 61.32 670.275 61.32C669.662 61.32 669.135 61.42 668.695 61.62C668.255 61.8067 667.862 62.0267 667.515 62.28L666.815 60.92C667.282 60.5867 667.815 60.3133 668.415 60.1C669.029 59.8733 669.722 59.76 670.495 59.76C671.309 59.76 672.002 59.9133 672.575 60.22C673.162 60.5267 673.609 60.9333 673.915 61.44C674.222 61.9333 674.375 62.4667 674.375 63.04C674.375 63.9733 674.102 64.7333 673.555 65.32C673.009 65.8933 672.209 66.34 671.155 66.66C671.995 66.9533 672.642 67.3867 673.095 67.96C673.549 68.5333 673.775 69.2133 673.775 70C673.775 70.8533 673.555 71.6 673.115 72.24C672.675 72.88 672.069 73.3733 671.295 73.72C670.535 74.0667 669.662 74.24 668.675 74.24C667.915 74.24 667.195 74.14 666.515 73.94C665.849 73.7267 665.282 73.44 664.815 73.08L665.875 71.66C666.209 71.94 666.609 72.1733 667.075 72.36C667.542 72.5467 668.075 72.64 668.675 72.64C669.582 72.64 670.335 72.42 670.935 71.98C671.535 71.54 671.835 70.9067 671.835 70.08C671.835 69.3467 671.549 68.7267 670.975 68.22C670.402 67.7 669.522 67.44 668.335 67.44H667.315ZM685.384 60H687.284L685.124 72.3H691.544L691.244 74H682.924L685.384 60ZM695.539 60.2C696.046 60.0933 696.586 60.0067 697.159 59.94C697.746 59.8733 698.392 59.84 699.099 59.84C700.179 59.84 701.079 60.0333 701.799 60.42C702.519 60.7933 703.052 61.2933 703.399 61.92C703.759 62.5333 703.939 63.1933 703.939 63.9C703.939 64.9933 703.672 65.9133 703.139 66.66C702.606 67.3933 701.872 67.9533 700.939 68.34C700.006 68.7133 698.946 68.9 697.759 68.9C697.439 68.9 697.119 68.8867 696.799 68.86C696.492 68.82 696.206 68.7667 695.939 68.7L695.019 74H693.119L695.539 60.2ZM698.899 61.42C698.539 61.42 698.219 61.4333 697.939 61.46C697.672 61.4867 697.426 61.52 697.199 61.56L696.219 67.1C696.486 67.18 696.772 67.24 697.079 67.28C697.399 67.3067 697.712 67.32 698.019 67.32C699.446 67.32 700.479 67.02 701.119 66.42C701.759 65.82 702.079 65.0533 702.079 64.12C702.079 63.3333 701.799 62.6867 701.239 62.18C700.692 61.6733 699.912 61.42 698.899 61.42ZM702.305 73.26L709.985 60H712.125L715.185 73.78L713.365 74.2L712.525 70.2H706.045L703.825 74.16L702.305 73.26ZM706.945 68.6H712.185L710.765 61.86L706.945 68.6Z" fill="#2B2F34"/>
<path d="M653.571 94.06C653.187 94.06 652.807 93.956 652.431 93.748C652.055 93.532 651.755 93.116 651.531 92.5L651.231 91.72H647.871L646.911 94H646.371L649.731 86.08H650.091L652.731 92.5C652.931 92.964 653.119 93.284 653.295 93.46C653.471 93.628 653.723 93.728 654.051 93.76V94C653.907 94.04 653.747 94.06 653.571 94.06ZM650.991 91.24L649.551 87.76L648.051 91.24H650.991ZM654.353 89.74C654.161 89.292 653.977 88.98 653.801 88.804C653.625 88.62 653.393 88.52 653.105 88.504V88.264C653.145 88.264 653.201 88.26 653.273 88.252C653.353 88.244 653.433 88.24 653.513 88.24C653.937 88.24 654.321 88.348 654.665 88.564C655.009 88.772 655.305 89.164 655.553 89.74L656.633 92.32L658.313 88.36H658.913L656.453 94.12H656.213L654.353 89.74ZM662.216 94.12C661.672 94.12 661.212 93.992 660.836 93.736C660.46 93.472 660.176 93.12 659.984 92.68C659.792 92.232 659.696 91.732 659.696 91.18C659.696 90.636 659.792 90.14 659.984 89.692C660.176 89.244 660.452 88.892 660.812 88.636C661.18 88.372 661.608 88.24 662.096 88.24C662.904 88.24 663.504 88.468 663.896 88.924C664.296 89.372 664.496 90.024 664.496 90.88L664.472 91.36H660.836C660.836 92.032 660.98 92.58 661.268 93.004C661.556 93.428 661.952 93.64 662.456 93.64C662.832 93.64 663.148 93.56 663.404 93.4C663.668 93.24 663.912 93 664.136 92.68L664.376 92.86C664.112 93.3 663.804 93.62 663.452 93.82C663.1 94.02 662.688 94.12 662.216 94.12ZM663.356 90.88C663.356 90.176 663.252 89.64 663.044 89.272C662.836 88.904 662.52 88.72 662.096 88.72C661.856 88.72 661.64 88.816 661.448 89.008C661.256 89.192 661.104 89.448 660.992 89.776C660.888 90.104 660.836 90.472 660.836 90.88H663.356ZM666.095 89.8C666.095 89.392 666.039 89.092 665.927 88.9C665.815 88.7 665.591 88.6 665.255 88.6H665.135V88.36H666.095C666.399 88.36 666.627 88.404 666.779 88.492C666.939 88.572 667.051 88.708 667.115 88.9H667.175C667.319 88.716 667.511 88.56 667.751 88.432C667.999 88.304 668.287 88.24 668.615 88.24C668.935 88.24 669.175 88.3 669.335 88.42C669.471 88.524 669.611 88.704 669.755 88.96L669.275 89.32C669.187 89.2 669.059 89.112 668.891 89.056C668.723 88.992 668.531 88.96 668.315 88.96C668.075 88.96 667.855 89.016 667.655 89.128C667.455 89.232 667.295 89.376 667.175 89.56V94H666.095V89.8ZM672.233 94.12C671.977 94.12 671.717 94.068 671.453 93.964C671.189 93.852 670.961 93.672 670.769 93.424C670.585 93.176 670.493 92.848 670.493 92.44C670.493 91.832 670.773 91.4 671.333 91.144C671.901 90.888 672.641 90.76 673.553 90.76H673.913C673.913 89.976 673.805 89.44 673.589 89.152C673.373 88.864 673.061 88.72 672.653 88.72C672.293 88.72 672.005 88.796 671.789 88.948C671.573 89.1 671.421 89.364 671.333 89.74H670.793C670.793 89.468 670.809 89.256 670.841 89.104C670.873 88.944 670.957 88.796 671.093 88.66C671.237 88.516 671.473 88.412 671.801 88.348C672.137 88.276 672.501 88.24 672.893 88.24C673.541 88.24 674.053 88.416 674.429 88.768C674.805 89.112 674.993 89.776 674.993 90.76V94H674.393L673.973 93.46H673.913C673.769 93.644 673.557 93.8 673.277 93.928C672.997 94.056 672.649 94.12 672.233 94.12ZM672.773 93.58C673.037 93.58 673.257 93.516 673.433 93.388C673.609 93.26 673.769 93.084 673.913 92.86V91.24H673.553C672.961 91.24 672.493 91.352 672.149 91.576C671.805 91.792 671.633 92.08 671.633 92.44C671.633 92.808 671.741 93.092 671.957 93.292C672.181 93.484 672.453 93.58 672.773 93.58ZM678.874 96.4C678.066 96.4 677.422 96.252 676.942 95.956C676.47 95.66 676.234 95.188 676.234 94.54C676.234 94.172 676.358 93.852 676.606 93.58C676.854 93.308 677.17 93.108 677.554 92.98C677.234 92.804 677.074 92.564 677.074 92.26C677.074 92.1 677.11 91.976 677.182 91.888C677.254 91.8 677.358 91.704 677.494 91.6C677.238 91.472 677.022 91.272 676.846 91C676.678 90.728 676.594 90.408 676.594 90.04C676.594 88.84 677.354 88.24 678.874 88.24H681.094V88.54L680.314 88.66V88.72C680.562 88.848 680.762 89.028 680.914 89.26C681.074 89.484 681.154 89.744 681.154 90.04C681.154 91.24 680.394 91.84 678.874 91.84C678.034 91.84 677.614 91.98 677.614 92.26C677.614 92.54 678.034 92.68 678.874 92.68C679.65 92.68 680.282 92.836 680.77 93.148C681.266 93.452 681.514 93.916 681.514 94.54C681.514 95.188 681.274 95.66 680.794 95.956C680.322 96.252 679.682 96.4 678.874 96.4ZM678.874 91.42C679.234 91.42 679.522 91.312 679.738 91.096C679.962 90.872 680.074 90.52 680.074 90.04C680.074 89.584 679.962 89.24 679.738 89.008C679.522 88.776 679.234 88.66 678.874 88.66C678.514 88.66 678.222 88.772 677.998 88.996C677.782 89.212 677.674 89.56 677.674 90.04C677.674 90.52 677.782 90.872 677.998 91.096C678.222 91.312 678.514 91.42 678.874 91.42ZM678.874 95.92C679.354 95.92 679.734 95.804 680.014 95.572C680.294 95.348 680.434 95.004 680.434 94.54C680.434 93.74 679.954 93.28 678.994 93.16L678.334 93.1C678.006 93.228 677.754 93.408 677.578 93.64C677.402 93.872 677.314 94.172 677.314 94.54C677.314 95.004 677.454 95.348 677.734 95.572C678.014 95.804 678.394 95.92 678.874 95.92ZM685.008 94.12C684.464 94.12 684.004 93.992 683.628 93.736C683.252 93.472 682.968 93.12 682.776 92.68C682.584 92.232 682.488 91.732 682.488 91.18C682.488 90.636 682.584 90.14 682.776 89.692C682.968 89.244 683.244 88.892 683.604 88.636C683.972 88.372 684.4 88.24 684.888 88.24C685.696 88.24 686.296 88.468 686.688 88.924C687.088 89.372 687.288 90.024 687.288 90.88L687.264 91.36H683.628C683.628 92.032 683.772 92.58 684.06 93.004C684.348 93.428 684.744 93.64 685.248 93.64C685.624 93.64 685.94 93.56 686.196 93.4C686.46 93.24 686.704 93 686.928 92.68L687.168 92.86C686.904 93.3 686.596 93.62 686.244 93.82C685.892 94.02 685.48 94.12 685.008 94.12ZM686.148 90.88C686.148 90.176 686.044 89.64 685.836 89.272C685.628 88.904 685.312 88.72 684.888 88.72C684.648 88.72 684.432 88.816 684.24 89.008C684.048 89.192 683.896 89.448 683.784 89.776C683.68 90.104 683.628 90.472 683.628 90.88H686.148ZM694.432 94.204C693.992 94.204 693.56 94.144 693.136 94.024C692.712 93.904 692.364 93.732 692.092 93.508C691.828 93.284 691.696 93.028 691.696 92.74V91.456H691.912C692.048 92.256 692.312 92.836 692.704 93.196C693.096 93.548 693.636 93.724 694.324 93.724C694.756 93.724 695.124 93.616 695.428 93.4C695.74 93.184 695.896 92.884 695.896 92.5C695.896 92.164 695.792 91.872 695.584 91.624C695.376 91.376 695.04 91.116 694.576 90.844L693.1 89.968C692.588 89.664 692.224 89.356 692.008 89.044C691.8 88.732 691.696 88.352 691.696 87.904C691.696 87.288 691.908 86.796 692.332 86.428C692.764 86.052 693.328 85.864 694.024 85.864C694.432 85.864 694.836 85.924 695.236 86.044C695.636 86.156 695.964 86.324 696.22 86.548C696.484 86.764 696.616 87.016 696.616 87.304V88.588H696.4C696.264 87.788 696.004 87.216 695.62 86.872C695.244 86.52 694.712 86.344 694.024 86.344C693.656 86.344 693.332 86.456 693.052 86.68C692.772 86.904 692.632 87.196 692.632 87.556C692.632 87.884 692.732 88.156 692.932 88.372C693.14 88.588 693.484 88.84 693.964 89.128L695.44 90.004C695.984 90.332 696.368 90.636 696.592 90.916C696.816 91.196 696.928 91.552 696.928 91.984C696.928 92.656 696.704 93.196 696.256 93.604C695.808 94.004 695.2 94.204 694.432 94.204ZM699.774 94.12C699.518 94.12 699.258 94.068 698.994 93.964C698.73 93.852 698.502 93.672 698.31 93.424C698.126 93.176 698.034 92.848 698.034 92.44C698.034 91.832 698.314 91.4 698.874 91.144C699.442 90.888 700.182 90.76 701.094 90.76H701.454C701.454 89.976 701.346 89.44 701.13 89.152C700.914 88.864 700.602 88.72 700.194 88.72C699.834 88.72 699.546 88.796 699.33 88.948C699.114 89.1 698.962 89.364 698.874 89.74H698.334C698.334 89.468 698.35 89.256 698.382 89.104C698.414 88.944 698.498 88.796 698.634 88.66C698.778 88.516 699.014 88.412 699.342 88.348C699.678 88.276 700.042 88.24 700.434 88.24C701.082 88.24 701.594 88.416 701.97 88.768C702.346 89.112 702.534 89.776 702.534 90.76V94H701.934L701.514 93.46H701.454C701.31 93.644 701.098 93.8 700.818 93.928C700.538 94.056 700.19 94.12 699.774 94.12ZM700.314 93.58C700.578 93.58 700.798 93.516 700.974 93.388C701.15 93.26 701.31 93.084 701.454 92.86V91.24H701.094C700.502 91.24 700.034 91.352 699.69 91.576C699.346 91.792 699.174 92.08 699.174 92.44C699.174 92.808 699.282 93.092 699.498 93.292C699.722 93.484 699.994 93.58 700.314 93.58ZM704.375 87.52C704.375 87.112 704.319 86.812 704.207 86.62C704.095 86.42 703.871 86.32 703.535 86.32H703.295V86.08H704.375C704.671 86.08 704.891 86.12 705.035 86.2C705.187 86.272 705.295 86.408 705.359 86.608C705.423 86.808 705.455 87.112 705.455 87.52V94H704.375V87.52ZM708.698 94.12C708.442 94.12 708.182 94.068 707.918 93.964C707.654 93.852 707.426 93.672 707.234 93.424C707.05 93.176 706.958 92.848 706.958 92.44C706.958 91.832 707.238 91.4 707.798 91.144C708.366 90.888 709.106 90.76 710.018 90.76H710.378C710.378 89.976 710.27 89.44 710.054 89.152C709.838 88.864 709.526 88.72 709.118 88.72C708.758 88.72 708.47 88.796 708.254 88.948C708.038 89.1 707.886 89.364 707.798 89.74H707.258C707.258 89.468 707.274 89.256 707.306 89.104C707.338 88.944 707.422 88.796 707.558 88.66C707.702 88.516 707.938 88.412 708.266 88.348C708.602 88.276 708.966 88.24 709.358 88.24C710.006 88.24 710.518 88.416 710.894 88.768C711.27 89.112 711.458 89.776 711.458 90.76V94H710.858L710.438 93.46H710.378C710.234 93.644 710.022 93.8 709.742 93.928C709.462 94.056 709.114 94.12 708.698 94.12ZM709.238 93.58C709.502 93.58 709.722 93.516 709.898 93.388C710.074 93.26 710.234 93.084 710.378 92.86V91.24H710.018C709.426 91.24 708.958 91.352 708.614 91.576C708.27 91.792 708.098 92.08 708.098 92.44C708.098 92.808 708.206 93.092 708.422 93.292C708.646 93.484 708.918 93.58 709.238 93.58ZM713.347 89.8C713.347 89.392 713.291 89.092 713.179 88.9C713.067 88.7 712.843 88.6 712.507 88.6H712.387V88.36H713.347C713.651 88.36 713.879 88.404 714.031 88.492C714.191 88.572 714.303 88.708 714.367 88.9H714.427C714.571 88.716 714.763 88.56 715.003 88.432C715.251 88.304 715.539 88.24 715.867 88.24C716.187 88.24 716.427 88.3 716.587 88.42C716.723 88.524 716.863 88.704 717.007 88.96L716.527 89.32C716.439 89.2 716.311 89.112 716.143 89.056C715.975 88.992 715.783 88.96 715.567 88.96C715.327 88.96 715.107 89.016 714.907 89.128C714.707 89.232 714.547 89.376 714.427 89.56V94H713.347V89.8ZM718.536 96.04C718.928 96.04 719.248 95.948 719.496 95.764C719.752 95.588 719.972 95.26 720.156 94.78L720.396 94.12L718.476 89.44C718.252 88.864 717.812 88.544 717.156 88.48V88.24H718.176C718.872 88.24 719.352 88.56 719.616 89.2L720.984 92.524L722.496 88.36H723.096L720.756 94.78C720.524 95.412 720.268 95.84 719.988 96.064C719.708 96.288 719.344 96.4 718.896 96.4H718.536V96.04Z" fill="#4F4F4F"/>
<rect x="40.5" y="38.5" width="710" height="76" rx="7.5" stroke="#E2E2E2" shape-rendering="crispEdges"/>
</g>
<defs>
<filter id="filter0_d_0_1230" x="0" y="0" width="791" height="157" filterUnits="userSpaceOnUse" color-interpolation-filters="sRGB">
<feFlood flood-opacity="0" result="BackgroundImageFix"/>
<feColorMatrix in="SourceAlpha" type="matrix" values="0 0 0 0 0 0 0 0 0 0 0 0 0 0 0 0 0 0 127 0" result="hardAlpha"/>
<feOffset dy="2"/>
<feGaussianBlur stdDeviation="20"/>
<feComposite in2="hardAlpha" operator="out"/>
<feColorMatrix type="matrix" values="0 0 0 0 0 0 0 0 0 0 0 0 0 0 0 0 0 0 0.08 0"/>
<feBlend mode="normal" in2="BackgroundImageFix" result="effect1_dropShadow_0_1230"/>
<feBlend mode="normal" in="SourceGraphic" in2="effect1_dropShadow_0_1230" result="shape"/>
</filter>
<clipPath id="clip0_0_1230">
<rect width="20" height="20" fill="white" transform="translate(68 66)"/>
</clipPath>
<clipPath id="clip1_0_1230">
<rect width="21" height="21" fill="white" transform="translate(432 68)"/>
</clipPath>
</defs>
</svg>
